<?xml version="1.0" encoding="UTF-8" standalone="no"?>
<!DOCTYPE svg PUBLIC "-//W3C//DTD SVG 1.1//EN"
 "http://www.w3.org/Graphics/SVG/1.1/DTD/svg11.dtd">
<!-- Generated by graphviz version 2.38.0 (20140413.2041)
 -->
<!-- Title: controllers_diagram Pages: 1 -->
<svg width="696pt" height="613pt"
 viewBox="0.00 0.00 695.76 613.00" xmlns="http://www.w3.org/2000/svg" xmlns:xlink="http://www.w3.org/1999/xlink">
<g id="graph0" class="graph" transform="scale(1 1) rotate(0) translate(259.821 369.5)">
<title>controllers_diagram</title>
<polygon fill="none" stroke="none" points="-259.821,243.5 -259.821,-369.5 435.935,-369.5 435.935,243.5 -259.821,243.5"/>
<!-- _diagram_info -->
<g id="node1" class="node"><title>_diagram_info</title>
<text text-anchor="start" x="56.3123" y="180.9" font-family="Times,serif" font-size="13.00">Controllers diagram</text>
<text text-anchor="start" x="56.3123" y="193.9" font-family="Times,serif" font-size="13.00">Date: Jul 31 2016 &#45; 00:27</text>
<text text-anchor="start" x="56.3123" y="206.9" font-family="Times,serif" font-size="13.00">Migration version: 20160731032338</text>
<text text-anchor="start" x="56.3123" y="219.9" font-family="Times,serif" font-size="13.00">Generated by RailRoady 1.5.1</text>
<text text-anchor="start" x="56.3123" y="232.9" font-family="Times,serif" font-size="13.00">http://railroady.prestonlee.com</text>
</g>
<!-- ApplicationController -->
<g id="node2" class="node"><title>ApplicationController</title>
<path fill="none" stroke="black" d="M-243.821,-257C-243.821,-257 -128.179,-257 -128.179,-257 -122.179,-257 -116.179,-263 -116.179,-269 -116.179,-269 -116.179,-337 -116.179,-337 -116.179,-343 -122.179,-349 -128.179,-349 -128.179,-349 -243.821,-349 -243.821,-349 -249.821,-349 -255.821,-343 -255.821,-337 -255.821,-337 -255.821,-269 -255.821,-269 -255.821,-263 -249.821,-257 -243.821,-257"/>
<text text-anchor="middle" x="-186" y="-333.8" font-family="Times,serif" font-size="14.00">ApplicationController</text>
<polyline fill="none" stroke="black" points="-255.821,-327 -116.179,-327 "/>
<polyline fill="none" stroke="black" points="-255.821,-303 -116.179,-303 "/>
<polyline fill="none" stroke="black" points="-255.821,-279 -116.179,-279 "/>
<text text-anchor="start" x="-247.821" y="-263.8" font-family="Times,serif" font-size="14.00">_layout</text>
</g>
<!-- CatalogsController -->
<g id="node3" class="node"><title>CatalogsController</title>
<path fill="none" stroke="black" d="M91.731,-81C91.731,-81 190.269,-81 190.269,-81 196.269,-81 202.269,-87 202.269,-93 202.269,-93 202.269,-271 202.269,-271 202.269,-277 196.269,-283 190.269,-283 190.269,-283 91.731,-283 91.731,-283 85.731,-283 79.731,-277 79.731,-271 79.731,-271 79.731,-93 79.731,-93 79.731,-87 85.731,-81 91.731,-81"/>
<text text-anchor="middle" x="141" y="-267.8" font-family="Times,serif" font-size="14.00">CatalogsController</text>
<polyline fill="none" stroke="black" points="79.731,-261 202.269,-261 "/>
<text text-anchor="start" x="87.731" y="-245.8" font-family="Times,serif" font-size="14.00">index</text>
<text text-anchor="start" x="87.731" y="-231.8" font-family="Times,serif" font-size="14.00">destroy</text>
<text text-anchor="start" x="87.731" y="-217.8" font-family="Times,serif" font-size="14.00">edit</text>
<text text-anchor="start" x="87.731" y="-203.8" font-family="Times,serif" font-size="14.00">create</text>
<text text-anchor="start" x="87.731" y="-189.8" font-family="Times,serif" font-size="14.00">new</text>
<text text-anchor="start" x="87.731" y="-175.8" font-family="Times,serif" font-size="14.00">show</text>
<text text-anchor="start" x="87.731" y="-161.8" font-family="Times,serif" font-size="14.00">update</text>
<polyline fill="none" stroke="black" points="79.731,-155 202.269,-155 "/>
<polyline fill="none" stroke="black" points="79.731,-131 202.269,-131 "/>
<text text-anchor="start" x="87.731" y="-115.8" font-family="Times,serif" font-size="14.00">_layout</text>
<text text-anchor="start" x="87.731" y="-101.8" font-family="Times,serif" font-size="14.00">catalog_params</text>
<text text-anchor="start" x="87.731" y="-87.8" font-family="Times,serif" font-size="14.00">set_catalog</text>
</g>
<!-- PokemonsController -->
<g id="node4" class="node"><title>PokemonsController</title>
<path fill="none" stroke="black" d="M-67.9414,-81C-67.9414,-81 39.9414,-81 39.9414,-81 45.9414,-81 51.9414,-87 51.9414,-93 51.9414,-93 51.9414,-229 51.9414,-229 51.9414,-235 45.9414,-241 39.9414,-241 39.9414,-241 -67.9414,-241 -67.9414,-241 -73.9414,-241 -79.9414,-235 -79.9414,-229 -79.9414,-229 -79.9414,-93 -79.9414,-93 -79.9414,-87 -73.9414,-81 -67.9414,-81"/>
<text text-anchor="middle" x="-14" y="-225.8" font-family="Times,serif" font-size="14.00">PokemonsController</text>
<polyline fill="none" stroke="black" points="-79.9414,-219 51.9414,-219 "/>
<text text-anchor="start" x="-71.9414" y="-203.8" font-family="Times,serif" font-size="14.00">create</text>
<text text-anchor="start" x="-71.9414" y="-189.8" font-family="Times,serif" font-size="14.00">index</text>
<text text-anchor="start" x="-71.9414" y="-175.8" font-family="Times,serif" font-size="14.00">leveldown</text>
<text text-anchor="start" x="-71.9414" y="-161.8" font-family="Times,serif" font-size="14.00">levelup</text>
<polyline fill="none" stroke="black" points="-79.9414,-155 51.9414,-155 "/>
<polyline fill="none" stroke="black" points="-79.9414,-131 51.9414,-131 "/>
<text text-anchor="start" x="-71.9414" y="-115.8" font-family="Times,serif" font-size="14.00">_layout</text>
<text text-anchor="start" x="-71.9414" y="-101.8" font-family="Times,serif" font-size="14.00">pokemon_params</text>
<text text-anchor="start" x="-71.9414" y="-87.8" font-family="Times,serif" font-size="14.00">set_pokemon</text>
</g>
<!-- Users::ConfirmationsController -->
<g id="node5" class="node"><title>Users::ConfirmationsController</title>
<path fill="none" stroke="black" d="M-163.662,175C-163.662,175 5.66211,175 5.66211,175 11.6621,175 17.6621,169 17.6621,163 17.6621,163 17.6621,95 17.6621,95 17.6621,89 11.6621,83 5.66211,83 5.66211,83 -163.662,83 -163.662,83 -169.662,83 -175.662,89 -175.662,95 -175.662,95 -175.662,163 -175.662,163 -175.662,169 -169.662,175 -163.662,175"/>
<text text-anchor="middle" x="-79" y="98.2" font-family="Times,serif" font-size="14.00">Users::ConfirmationsController</text>
<polyline fill="none" stroke="black" points="-175.662,105 17.6621,105 "/>
<polyline fill="none" stroke="black" points="-175.662,129 17.6621,129 "/>
<polyline fill="none" stroke="black" points="-175.662,153 17.6621,153 "/>
<text text-anchor="start" x="-167.662" y="168.2" font-family="Times,serif" font-size="14.00">_layout</text>
</g>
<!-- Users::OmniauthCallbacksController -->
<g id="node6" class="node"><title>Users::OmniauthCallbacksController</title>
<path fill="none" stroke="black" d="M-116.204,47C-116.204,47 84.2036,47 84.2036,47 90.2036,47 96.2036,41 96.2036,35 96.2036,35 96.2036,-33 96.2036,-33 96.2036,-39 90.2036,-45 84.2036,-45 84.2036,-45 -116.204,-45 -116.204,-45 -122.204,-45 -128.204,-39 -128.204,-33 -128.204,-33 -128.204,35 -128.204,35 -128.204,41 -122.204,47 -116.204,47"/>
<text text-anchor="middle" x="-16" y="-29.8" font-family="Times,serif" font-size="14.00">Users::OmniauthCallbacksController</text>
<polyline fill="none" stroke="black" points="-128.204,-23 96.2036,-23 "/>
<polyline fill="none" stroke="black" points="-128.204,1 96.2036,1 "/>
<polyline fill="none" stroke="black" points="-128.204,25 96.2036,25 "/>
<text text-anchor="start" x="-120.204" y="40.2" font-family="Times,serif" font-size="14.00">_layout</text>
</g>
<!-- Users::PasswordsController -->
<g id="node7" class="node"><title>Users::PasswordsController</title>
<path fill="none" stroke="black" d="M251.838,-17C251.838,-17 400.162,-17 400.162,-17 406.162,-17 412.162,-23 412.162,-29 412.162,-29 412.162,-97 412.162,-97 412.162,-103 406.162,-109 400.162,-109 400.162,-109 251.838,-109 251.838,-109 245.838,-109 239.838,-103 239.838,-97 239.838,-97 239.838,-29 239.838,-29 239.838,-23 245.838,-17 251.838,-17"/>
<text text-anchor="middle" x="326" y="-93.8" font-family="Times,serif" font-size="14.00">Users::PasswordsController</text>
<polyline fill="none" stroke="black" points="239.838,-87 412.162,-87 "/>
<polyline fill="none" stroke="black" points="239.838,-63 412.162,-63 "/>
<polyline fill="none" stroke="black" points="239.838,-39 412.162,-39 "/>
<text text-anchor="start" x="247.838" y="-23.8" font-family="Times,serif" font-size="14.00">_layout</text>
</g>
<!-- Users::RegistrationsController -->
<g id="node8" class="node"><title>Users::RegistrationsController</title>
<path fill="none" stroke="black" d="M140.455,127C140.455,127 303.545,127 303.545,127 309.545,127 315.545,121 315.545,115 315.545,115 315.545,35 315.545,35 315.545,29 309.545,23 303.545,23 303.545,23 140.455,23 140.455,23 134.455,23 128.455,29 128.455,35 128.455,35 128.455,115 128.455,115 128.455,121 134.455,127 140.455,127"/>
<text text-anchor="middle" x="222" y="38.2" font-family="Times,serif" font-size="14.00">Users::RegistrationsController</text>
<polyline fill="none" stroke="black" points="128.455,45 315.545,45 "/>
<text text-anchor="start" x="136.455" y="60.2" font-family="Times,serif" font-size="14.00">after_sign_up_path_for</text>
<text text-anchor="start" x="136.455" y="74.2" font-family="Times,serif" font-size="14.00">configure_sign_up_params</text>
<polyline fill="none" stroke="black" points="128.455,81 315.545,81 "/>
<polyline fill="none" stroke="black" points="128.455,105 315.545,105 "/>
<text text-anchor="start" x="136.455" y="120.2" font-family="Times,serif" font-size="14.00">_layout</text>
</g>
<!-- Users::SessionsController -->
<g id="node9" class="node"><title>Users::SessionsController</title>
<path fill="none" stroke="black" d="M252.279,-145C252.279,-145 389.721,-145 389.721,-145 395.721,-145 401.721,-151 401.721,-157 401.721,-157 401.721,-223 401.721,-223 401.721,-229 395.721,-235 389.721,-235 389.721,-235 252.279,-235 252.279,-235 246.279,-235 240.279,-229 240.279,-223 240.279,-223 240.279,-157 240.279,-157 240.279,-151 246.279,-145 252.279,-145"/>
<text text-anchor="middle" x="321" y="-219.8" font-family="Times,serif" font-size="14.00">Users::SessionsController</text>
<polyline fill="none" stroke="black" points="240.279,-213 401.721,-213 "/>
<text text-anchor="start" x="248.279" y="-197.8" font-family="Times,serif" font-size="14.00">after_sign_in_path_for</text>
<polyline fill="none" stroke="black" points="240.279,-191 401.721,-191 "/>
<polyline fill="none" stroke="black" points="240.279,-167 401.721,-167 "/>
<text text-anchor="start" x="248.279" y="-151.8" font-family="Times,serif" font-size="14.00">_layout</text>
</g>
<!-- Users::UnlocksController -->
<g id="node10" class="node"><title>Users::UnlocksController</title>
<path fill="none" stroke="black" d="M284.065,-273C284.065,-273 419.935,-273 419.935,-273 425.935,-273 431.935,-279 431.935,-285 431.935,-285 431.935,-353 431.935,-353 431.935,-359 425.935,-365 419.935,-365 419.935,-365 284.065,-365 284.065,-365 278.065,-365 272.065,-359 272.065,-353 272.065,-353 272.065,-285 272.065,-285 272.065,-279 278.065,-273 284.065,-273"/>
<text text-anchor="middle" x="352" y="-349.8" font-family="Times,serif" font-size="14.00">Users::UnlocksController</text>
<polyline fill="none" stroke="black" points="272.065,-343 431.935,-343 "/>
<polyline fill="none" stroke="black" points="272.065,-319 431.935,-319 "/>
<polyline fill="none" stroke="black" points="272.065,-295 431.935,-295 "/>
<text text-anchor="start" x="280.065" y="-279.8" font-family="Times,serif" font-size="14.00">_layout</text>
</g>
</g>
</svg>
