<?xml version="1.0" encoding="UTF-8" standalone="no"?>
<!DOCTYPE svg PUBLIC "-//W3C//DTD SVG 1.1//EN"
 "http://www.w3.org/Graphics/SVG/1.1/DTD/svg11.dtd">
<!-- Generated by graphviz version 2.38.0 (20140413.2041)
 -->
<!-- Title: models_diagram Pages: 1 -->
<svg width="430pt" height="225pt"
 viewBox="0.00 0.00 429.86 225.00" xmlns="http://www.w3.org/2000/svg" xmlns:xlink="http://www.w3.org/1999/xlink">
<g id="graph0" class="graph" transform="scale(1 1) rotate(0) translate(4 221)">
<title>models_diagram</title>
<polygon fill="none" stroke="none" points="-4,4 -4,-221 425.864,-221 425.864,4 -4,4"/>
<!-- _diagram_info -->
<g id="node1" class="node"><title>_diagram_info</title>
<text text-anchor="start" x="8" y="-202.6" font-family="Times,serif" font-size="13.00">Models diagram</text>
<text text-anchor="start" x="8" y="-189.6" font-family="Times,serif" font-size="13.00">Date: Jul 31 2016 &#45; 00:27</text>
<text text-anchor="start" x="8" y="-176.6" font-family="Times,serif" font-size="13.00">Migration version: 20160731032338</text>
<text text-anchor="start" x="8" y="-163.6" font-family="Times,serif" font-size="13.00">Generated by RailRoady 1.5.1</text>
<text text-anchor="start" x="8" y="-150.6" font-family="Times,serif" font-size="13.00">http://railroady.prestonlee.com</text>
</g>
<!-- Ability -->
<g id="node2" class="node"><title>Ability</title>
<polygon fill="none" stroke="black" points="281.358,-198.5 226.018,-198.5 226.018,-162.5 281.358,-162.5 281.358,-198.5"/>
<text text-anchor="middle" x="253.688" y="-176.3" font-family="Times,serif" font-size="14.00">Ability</text>
</g>
<!-- Catalog -->
<g id="node3" class="node"><title>Catalog</title>
<ellipse fill="none" stroke="black" cx="336.688" cy="-180.5" rx="37.7266" ry="18"/>
<text text-anchor="middle" x="336.688" y="-176.3" font-family="Times,serif" font-size="14.00">Catalog</text>
</g>
<!-- Pokemon -->
<g id="node4" class="node"><title>Pokemon</title>
<ellipse fill="none" stroke="black" cx="284.688" cy="-18" rx="43.5319" ry="18"/>
<text text-anchor="middle" x="284.688" y="-13.8" font-family="Times,serif" font-size="14.00">Pokemon</text>
</g>
<!-- Catalog&#45;&gt;Pokemon -->
<g id="edge1" class="edge"><title>Catalog&#45;&gt;Pokemon</title>
<path fill="none" stroke="#0131a7" d="M322.656,-155.944C315.118,-142.348 306.257,-124.685 300.688,-108 293.947,-87.8041 289.857,-64.0281 287.502,-46.1335"/>
<ellipse fill="none" stroke="#0131a7" cx="324.707" cy="-159.566" rx="4.00002" ry="4.00002"/>
<polygon fill="#0131a7" stroke="#0131a7" points="287.489,-46.0195 290.748,-35.5491 286.885,-41.0561 286.281,-36.0928 286.281,-36.0928 286.281,-36.0928 286.885,-41.0561 281.813,-36.6364 287.489,-46.0195 287.489,-46.0195"/>
</g>
<!-- Report -->
<g id="node5" class="node"><title>Report</title>
<ellipse fill="none" stroke="black" cx="387.688" cy="-18" rx="34.3527" ry="18"/>
<text text-anchor="middle" x="387.688" y="-13.8" font-family="Times,serif" font-size="14.00">Report</text>
</g>
<!-- Catalog&#45;&gt;Report -->
<g id="edge3" class="edge"><title>Catalog&#45;&gt;Report</title>
<path fill="none" stroke="#654ec6" d="M350.79,-155.967C358.349,-142.378 367.21,-124.715 372.688,-108 379.306,-87.806 383.122,-64.0299 385.247,-46.1347"/>
<ellipse fill="none" stroke="#654ec6" cx="348.731" cy="-159.588" rx="4.00002" ry="4.00002"/>
<polygon fill="#654ec6" stroke="#654ec6" points="385.258,-46.0353 390.81,-36.5791 385.797,-41.0645 386.337,-36.0937 386.337,-36.0937 386.337,-36.0937 385.797,-41.0645 381.863,-35.6082 385.258,-46.0353 385.258,-46.0353"/>
</g>
<!-- User -->
<g id="node6" class="node"><title>User</title>
<ellipse fill="none" stroke="black" cx="336.688" cy="-90" rx="27" ry="18"/>
<text text-anchor="middle" x="336.688" y="-85.8" font-family="Times,serif" font-size="14.00">User</text>
</g>
<!-- Catalog&#45;&gt;User -->
<g id="edge2" class="edge"><title>Catalog&#45;&gt;User</title>
<path fill="none" stroke="#251624" d="M336.688,-152.092C336.688,-141.289 336.688,-128.912 336.688,-118.136"/>
<polygon fill="#251624" stroke="#251624" points="336.688,-152.436 332.188,-162.436 336.688,-157.436 336.688,-162.436 336.688,-162.436 336.688,-162.436 336.688,-157.436 341.188,-162.436 336.688,-152.436 336.688,-152.436"/>
<polygon fill="#251624" stroke="#251624" points="336.688,-118.011 341.188,-108.011 336.688,-113.011 336.688,-108.011 336.688,-108.011 336.688,-108.011 336.688,-113.011 332.188,-108.011 336.688,-118.011 336.688,-118.011"/>
</g>
<!-- User&#45;&gt;Pokemon -->
<g id="edge4" class="edge"><title>User&#45;&gt;Pokemon</title>
<path fill="none" stroke="#0cc39d" d="M320.163,-66.7546C314.744,-59.4607 308.69,-51.3106 303.138,-43.8374"/>
<ellipse fill="none" stroke="#0cc39d" cx="322.762" cy="-70.2537" rx="4.00002" ry="4.00002"/>
<polygon fill="#0cc39d" stroke="#0cc39d" points="302.884,-43.4946 300.533,-32.7837 299.902,-39.4809 296.921,-35.4672 296.921,-35.4672 296.921,-35.4672 299.902,-39.4809 293.308,-38.1507 302.884,-43.4946 302.884,-43.4946"/>
</g>
<!-- User&#45;&gt;Report -->
<g id="edge5" class="edge"><title>User&#45;&gt;Report</title>
<path fill="none" stroke="#5a329e" d="M352.752,-66.951C358.182,-59.4976 364.277,-51.1319 369.838,-43.5003"/>
<ellipse fill="none" stroke="#5a329e" cx="350.362" cy="-70.2318" rx="4.00002" ry="4.00002"/>
<polygon fill="#5a329e" stroke="#5a329e" points="370.159,-43.0595 379.684,-37.627 373.103,-39.0183 376.047,-34.9772 376.047,-34.9772 376.047,-34.9772 373.103,-39.0183 372.41,-32.3273 370.159,-43.0595 370.159,-43.0595"/>
</g>
</g>
</svg>
