<?xml version="1.0" encoding="UTF-8" standalone="no"?>
<!DOCTYPE svg PUBLIC "-//W3C//DTD SVG 1.1//EN"
 "http://www.w3.org/Graphics/SVG/1.1/DTD/svg11.dtd">
<!-- Generated by graphviz version 2.38.0 (20140413.2041)
 -->
<!-- Title: models_diagram Pages: 1 -->
<svg width="542pt" height="551pt"
 viewBox="0.00 0.00 542.19 551.00" xmlns="http://www.w3.org/2000/svg" xmlns:xlink="http://www.w3.org/1999/xlink">
<g id="graph0" class="graph" transform="scale(1 1) rotate(0) translate(4 547)">
<title>models_diagram</title>
<polygon fill="none" stroke="none" points="-4,4 -4,-547 538.193,-547 538.193,4 -4,4"/>
<!-- _diagram_info -->
<g id="node1" class="node"><title>_diagram_info</title>
<text text-anchor="start" x="8" y="-514.6" font-family="Times,serif" font-size="13.00">Models diagram</text>
<text text-anchor="start" x="8" y="-501.6" font-family="Times,serif" font-size="13.00">Date: Jul 31 2016 &#45; 00:27</text>
<text text-anchor="start" x="8" y="-488.6" font-family="Times,serif" font-size="13.00">Migration version: 20160731032338</text>
<text text-anchor="start" x="8" y="-475.6" font-family="Times,serif" font-size="13.00">Generated by RailRoady 1.5.1</text>
<text text-anchor="start" x="8" y="-462.6" font-family="Times,serif" font-size="13.00">http://railroady.prestonlee.com</text>
</g>
<!-- Ability -->
<g id="node2" class="node"><title>Ability</title>
<polygon fill="none" stroke="black" points="225.853,-470.5 225.853,-514.5 281.522,-514.5 281.522,-470.5 225.853,-470.5"/>
<text text-anchor="middle" x="253.688" y="-499.3" font-family="Times,serif" font-size="14.00">Ability</text>
<polyline fill="none" stroke="black" points="225.853,-492.5 281.522,-492.5 "/>
<text text-anchor="middle" x="253.688" y="-477.3" font-family="Times,serif" font-size="14.00"> </text>
</g>
<!-- Catalog -->
<g id="node3" class="node"><title>Catalog</title>
<path fill="none" stroke="black" d="M311.182,-442.5C311.182,-442.5 420.193,-442.5 420.193,-442.5 426.193,-442.5 432.193,-448.5 432.193,-454.5 432.193,-454.5 432.193,-530.5 432.193,-530.5 432.193,-536.5 426.193,-542.5 420.193,-542.5 420.193,-542.5 311.182,-542.5 311.182,-542.5 305.182,-542.5 299.182,-536.5 299.182,-530.5 299.182,-530.5 299.182,-454.5 299.182,-454.5 299.182,-448.5 305.182,-442.5 311.182,-442.5"/>
<text text-anchor="middle" x="365.688" y="-527.3" font-family="Times,serif" font-size="14.00">Catalog</text>
<polyline fill="none" stroke="black" points="299.182,-520.5 432.193,-520.5 "/>
<text text-anchor="start" x="307.182" y="-505.3" font-family="Times,serif" font-size="14.00">id :INTEGER</text>
<text text-anchor="start" x="307.182" y="-491.3" font-family="Times,serif" font-size="14.00">name :varchar</text>
<text text-anchor="start" x="307.182" y="-477.3" font-family="Times,serif" font-size="14.00">description :text</text>
<text text-anchor="start" x="307.182" y="-463.3" font-family="Times,serif" font-size="14.00">created_at :datetime</text>
<text text-anchor="start" x="307.182" y="-449.3" font-family="Times,serif" font-size="14.00">updated_at :datetime</text>
</g>
<!-- Pokemon -->
<g id="node4" class="node"><title>Pokemon</title>
<path fill="none" stroke="black" d="M208.182,-7.5C208.182,-7.5 317.193,-7.5 317.193,-7.5 323.193,-7.5 329.193,-13.5 329.193,-19.5 329.193,-19.5 329.193,-109.5 329.193,-109.5 329.193,-115.5 323.193,-121.5 317.193,-121.5 317.193,-121.5 208.182,-121.5 208.182,-121.5 202.182,-121.5 196.182,-115.5 196.182,-109.5 196.182,-109.5 196.182,-19.5 196.182,-19.5 196.182,-13.5 202.182,-7.5 208.182,-7.5"/>
<text text-anchor="middle" x="262.688" y="-106.3" font-family="Times,serif" font-size="14.00">Pokemon</text>
<polyline fill="none" stroke="black" points="196.182,-99.5 329.193,-99.5 "/>
<text text-anchor="start" x="204.182" y="-84.3" font-family="Times,serif" font-size="14.00">id :INTEGER</text>
<text text-anchor="start" x="204.182" y="-70.3" font-family="Times,serif" font-size="14.00">user_id :integer</text>
<text text-anchor="start" x="204.182" y="-56.3" font-family="Times,serif" font-size="14.00">catalog_id :integer</text>
<text text-anchor="start" x="204.182" y="-42.3" font-family="Times,serif" font-size="14.00">created_at :datetime</text>
<text text-anchor="start" x="204.182" y="-28.3" font-family="Times,serif" font-size="14.00">updated_at :datetime</text>
<text text-anchor="start" x="204.182" y="-14.3" font-family="Times,serif" font-size="14.00">level :integer</text>
</g>
<!-- Catalog&#45;&gt;Pokemon -->
<g id="edge1" class="edge"><title>Catalog&#45;&gt;Pokemon</title>
<path fill="none" stroke="#69acf3" d="M292.529,-442.839C274.808,-429.425 259.541,-415.865 254.688,-406 211.744,-318.715 227.297,-202.997 243.899,-131.436"/>
<ellipse fill="none" stroke="#69acf3" cx="295.944" cy="-445.38" rx="4.00002" ry="4.00002"/>
<polygon fill="#69acf3" stroke="#69acf3" points="243.916,-131.365 250.619,-122.686 245.079,-126.502 246.242,-121.639 246.242,-121.639 246.242,-121.639 245.079,-126.502 241.866,-120.592 243.916,-131.365 243.916,-131.365"/>
</g>
<!-- Report -->
<g id="node5" class="node"><title>Report</title>
<path fill="none" stroke="black" d="M413.182,-0.5C413.182,-0.5 522.193,-0.5 522.193,-0.5 528.193,-0.5 534.193,-6.5 534.193,-12.5 534.193,-12.5 534.193,-116.5 534.193,-116.5 534.193,-122.5 528.193,-128.5 522.193,-128.5 522.193,-128.5 413.182,-128.5 413.182,-128.5 407.182,-128.5 401.182,-122.5 401.182,-116.5 401.182,-116.5 401.182,-12.5 401.182,-12.5 401.182,-6.5 407.182,-0.5 413.182,-0.5"/>
<text text-anchor="middle" x="467.688" y="-113.3" font-family="Times,serif" font-size="14.00">Report</text>
<polyline fill="none" stroke="black" points="401.182,-106.5 534.193,-106.5 "/>
<text text-anchor="start" x="409.182" y="-91.3" font-family="Times,serif" font-size="14.00">user_id :integer</text>
<text text-anchor="start" x="409.182" y="-77.3" font-family="Times,serif" font-size="14.00">information :text</text>
<text text-anchor="start" x="409.182" y="-63.3" font-family="Times,serif" font-size="14.00">picture :varchar</text>
<text text-anchor="start" x="409.182" y="-49.3" font-family="Times,serif" font-size="14.00">id :INTEGER</text>
<text text-anchor="start" x="409.182" y="-35.3" font-family="Times,serif" font-size="14.00">catalog_id :integer</text>
<text text-anchor="start" x="409.182" y="-21.3" font-family="Times,serif" font-size="14.00">created_at :datetime</text>
<text text-anchor="start" x="409.182" y="-7.3" font-family="Times,serif" font-size="14.00">updated_at :datetime</text>
</g>
<!-- Catalog&#45;&gt;Report -->
<g id="edge3" class="edge"><title>Catalog&#45;&gt;Report</title>
<path fill="none" stroke="#50f29a" d="M438.976,-450.417C454.167,-438.219 468.137,-423.379 476.688,-406 518.264,-321.496 504.627,-210.353 488.384,-138.421"/>
<ellipse fill="none" stroke="#50f29a" cx="435.572" cy="-453.041" rx="4.00002" ry="4.00002"/>
<polygon fill="#50f29a" stroke="#50f29a" points="488.35,-138.277 490.462,-127.517 487.215,-133.408 486.08,-128.538 486.08,-128.538 486.08,-128.538 487.215,-133.408 481.697,-129.56 488.35,-138.277 488.35,-138.277"/>
</g>
<!-- User -->
<g id="node6" class="node"><title>User</title>
<path fill="none" stroke="black" d="M275.41,-165.5C275.41,-165.5 455.966,-165.5 455.966,-165.5 461.966,-165.5 467.966,-171.5 467.966,-177.5 467.966,-177.5 467.966,-393.5 467.966,-393.5 467.966,-399.5 461.966,-405.5 455.966,-405.5 455.966,-405.5 275.41,-405.5 275.41,-405.5 269.41,-405.5 263.41,-399.5 263.41,-393.5 263.41,-393.5 263.41,-177.5 263.41,-177.5 263.41,-171.5 269.41,-165.5 275.41,-165.5"/>
<text text-anchor="middle" x="365.688" y="-390.3" font-family="Times,serif" font-size="14.00">User</text>
<polyline fill="none" stroke="black" points="263.41,-383.5 467.966,-383.5 "/>
<text text-anchor="start" x="271.41" y="-368.3" font-family="Times,serif" font-size="14.00">name :varchar</text>
<text text-anchor="start" x="271.41" y="-354.3" font-family="Times,serif" font-size="14.00">email :varchar</text>
<text text-anchor="start" x="271.41" y="-340.3" font-family="Times,serif" font-size="14.00">encrypted_password :varchar</text>
<text text-anchor="start" x="271.41" y="-326.3" font-family="Times,serif" font-size="14.00">reset_password_token :varchar</text>
<text text-anchor="start" x="271.41" y="-312.3" font-family="Times,serif" font-size="14.00">reset_password_sent_at :datetime</text>
<text text-anchor="start" x="271.41" y="-298.3" font-family="Times,serif" font-size="14.00">remember_created_at :datetime</text>
<text text-anchor="start" x="271.41" y="-284.3" font-family="Times,serif" font-size="14.00">sign_in_count :integer</text>
<text text-anchor="start" x="271.41" y="-270.3" font-family="Times,serif" font-size="14.00">current_sign_in_at :datetime</text>
<text text-anchor="start" x="271.41" y="-256.3" font-family="Times,serif" font-size="14.00">last_sign_in_at :datetime</text>
<text text-anchor="start" x="271.41" y="-242.3" font-family="Times,serif" font-size="14.00">current_sign_in_ip :varchar</text>
<text text-anchor="start" x="271.41" y="-228.3" font-family="Times,serif" font-size="14.00">last_sign_in_ip :varchar</text>
<text text-anchor="start" x="271.41" y="-214.3" font-family="Times,serif" font-size="14.00">created_at :datetime</text>
<text text-anchor="start" x="271.41" y="-200.3" font-family="Times,serif" font-size="14.00">updated_at :datetime</text>
<text text-anchor="start" x="271.41" y="-186.3" font-family="Times,serif" font-size="14.00">role :integer</text>
<text text-anchor="start" x="271.41" y="-172.3" font-family="Times,serif" font-size="14.00">id :INTEGER</text>
</g>
<!-- Catalog&#45;&gt;User -->
<g id="edge2" class="edge"><title>Catalog&#45;&gt;User</title>
<path fill="none" stroke="#51ce27" d="M365.688,-432.36C365.688,-427.085 365.688,-421.622 365.688,-416.044"/>
<polygon fill="#51ce27" stroke="#51ce27" points="365.688,-432.397 361.188,-442.397 365.688,-437.397 365.688,-442.397 365.688,-442.397 365.688,-442.397 365.688,-437.397 370.188,-442.397 365.688,-432.397 365.688,-432.397"/>
<polygon fill="#51ce27" stroke="#51ce27" points="365.688,-415.894 370.188,-405.894 365.688,-410.894 365.688,-405.894 365.688,-405.894 365.688,-405.894 365.688,-410.894 361.188,-405.894 365.688,-415.894 365.688,-415.894"/>
</g>
<!-- User&#45;&gt;Pokemon -->
<g id="edge4" class="edge"><title>User&#45;&gt;Pokemon</title>
<path fill="none" stroke="#f2cffe" d="M306.149,-157.907C301.779,-148.616 297.488,-139.493 293.407,-130.816"/>
<ellipse fill="none" stroke="#f2cffe" cx="307.964" cy="-161.767" rx="4.00002" ry="4.00002"/>
<polygon fill="#f2cffe" stroke="#f2cffe" points="293.323,-130.636 293.139,-119.672 291.195,-126.111 289.067,-121.587 289.067,-121.587 289.067,-121.587 291.195,-126.111 284.994,-123.502 293.323,-130.636 293.323,-130.636"/>
</g>
<!-- User&#45;&gt;Report -->
<g id="edge5" class="edge"><title>User&#45;&gt;Report</title>
<path fill="none" stroke="#f95377" d="M424.603,-158.005C427.763,-151.221 430.881,-144.527 433.907,-138.029"/>
<ellipse fill="none" stroke="#f95377" cx="422.854" cy="-161.761" rx="4.00002" ry="4.00002"/>
<polygon fill="#f95377" stroke="#f95377" points="434.047,-137.728 442.349,-130.562 436.159,-133.195 438.27,-128.662 438.27,-128.662 438.27,-128.662 436.159,-133.195 434.19,-126.763 434.047,-137.728 434.047,-137.728"/>
</g>
</g>
</svg>
